# xmcd
#
# Track frame offsets: 
#        150
#        18224
#        30735
#        42326
#        51033
#        68349
#        80823
#        93002
#        99205
#        111352
#        125242
#        137877
#        152577
#        168652
#        190977
#        199238
#        212185
#        227061
#        238559
#        250679
#        260057
#        271611
#        286442
#        297669
#        307180
#
# Disc length: 4278 seconds
#
# Revision: 11
# Processed by: cddbd v1.5.2PL0 Copyright (c) Steve Scherf et al.
# Submitted via: ExactAudioCopyFreeDBPlugin 1.0
#
DISCID=7010b419
DTITLE=Various Artist - Best of Blues [CD 2)
DYEAR=1999
DGENRE=Blues
TTITLE0=Muddy Waters - 1.Baby please don' t go
TTITLE1=Howlin'  Wolf - 2. Ain' t Superstitious
TTITLE2=John Lee Hooker - 3. Boogie Chillun
TTITLE3=B.B. King - 4. A new Way of driving
TTITLE4=Louis Armstrong - 5. Back O' Town Blues
TTITLE5=Elmore James - 6. The Sky is crying
TTITLE6=Dinah Washington - 7. Unforgettable
TTITLE7=Eric Clapton - 8. Choker
TTITLE8=Canned Heat - 9. Got my Mojo Working
TTITLE9=Etta James - 10. All I could do was cry
TTITLE10=John Lee Hooker - 11. Hobo Blues
TTITLE11=Louis Armstrong - 12. Tin Roof Blues
TTITLE12=B.B. King - 13. It' s my own fault Baby
TTITLE13=Howlin' Wolf - 14. Wang Dang Doodle
TTITLE14=Fats Domino - 15. Red Sails in the Sunset
TTITLE15=Muddy Waters - 16. 40 Days and 40 Nights
TTITLE16=Elmore James - 17. It hurts me too
TTITLE17=Lightnin' Hopkins - 18. Tell me pretty Mama
TTITLE18=John Lee Hooker - 19. Whisky and Women
TTITLE19=Canned Heat - 20. Rollin'  and tumblin'
TTITLE20=Howlin' Wolf - 21. Mooning at Midnight
TTITLE21=B. B. King - 22. B. B. Boogie
TTITLE22=Fats Domino - 23. Ain' t that a Shame
TTITLE23=Canned Heat - 24. Big Road Blues
TTITLE24=Muddy Waters - 25. Lonesome Road Blues
EXTD=
EXTT0=
EXTT1=
EXTT2=
EXTT3=
EXTT4=
EXTT5=
EXTT6=
EXTT7=
EXTT8=
EXTT9=
EXTT10=
EXTT11=
EXTT12=
EXTT13=
EXTT14=
EXTT15=
EXTT16=
EXTT17=
EXTT18=
EXTT19=
EXTT20=
EXTT21=
EXTT22=
EXTT23=
EXTT24=
PLAYORDER=
